<?xml version="1.0" encoding="UTF-8"?>
<svg width="512" height="512" viewBox="0 0 512 512" xmlns="http://www.w3.org/2000/svg">
  <!-- Background circle -->
  <circle cx="256" cy="256" r="256" fill="#26A69A"/>
  
  <!-- Inner circle -->
  <circle cx="256" cy="256" r="200" fill="#FFFFFF" opacity="0.15"/>
  
  <!-- Compass needle background -->
  <circle cx="256" cy="256" r="120" fill="#FFFFFF" opacity="0.8"/>
  
  <!-- Compass directions -->
  <!-- North -->
  <polygon points="256,156 276,200 256,186 236,200" fill="#FF5722"/>
  <!-- South -->
  <polygon points="256,356 236,312 256,326 276,312" fill="#FF5722"/>
  <!-- East -->
  <polygon points="356,256 312,236 326,256 312,276" fill="#607D8B"/>
  <!-- West -->
  <polygon points="156,256 200,276 186,256 200,236" fill="#607D8B"/>
  
  <!-- Center dot -->
  <circle cx="256" cy="256" r="8" fill="#37474F"/>
  
  <!-- Map marker icon -->
  <path d="M256 200 C240 200 227 213 227 229 C227 245 256 280 256 280 S285 245 285 229 C285 213 272 200 256 200 Z" fill="#FFC107"/>
  <circle cx="256" cy="229" r="10" fill="#FFFFFF"/>
  
</svg> 